<?xml version="1.0" encoding="UTF-8" standalone="no"?>
<!DOCTYPE svg PUBLIC "-//W3C//DTD SVG 1.1//EN" "http://www.w3.org/Graphics/SVG/1.1/DTD/svg11.dtd">
<svg version="1.1" xmlns="http://www.w3.org/2000/svg" width="38" height="39">
	<g transform="scale(0.10) translate(100,100)">
		<path d="M110.62890625 4.54296875 C107.01985219 7.91606682 104.55839548 11.8003498 101.92578125 15.95507812 C98.82509011 20.56674097 96.30984601 22.29087431 91 24 C84.40570816 24.89414127 80.14078178 22.96263181 74.1328125 20.3125 C61.67464616 15.09311859 48.55450025 13.9029212 35.796875 18.74609375 C27.6690478 22.38999393 20.89278405 27.54677527 13.8515625 32.94140625 C10.36876002 35.45570338 6.9200238 37.26614332 3 39 C3.33 39.66 3.66 40.32 4 41 C23.84856026 47.04345705 51.2237277 48.67655895 70.6015625 40.3359375 C74.94676475 37.91564569 78.76258855 34.77575094 82 31 C82.33 29.68 82.66 28.36 83 27 C87.29 26.67 91.58 26.34 96 26 C95.01 29.465 95.01 29.465 94 33 C93.14148438 33.10183594 92.28296875 33.20367187 91.3984375 33.30859375 C87.69643784 34.0617592 84.97098246 35.31797946 81.625 37.0625 C80.39363335 37.70130055 79.16184516 38.33928903 77.9296875 38.9765625 C76.9701416 39.47591309 76.9701416 39.47591309 75.99121094 39.98535156 C73.97118244 41.01468438 71.9330566 41.99333055 69.8828125 42.9609375 C61.75878801 46.82231517 54.69505583 50.87738388 48 57 C47.36835937 57.55171875 46.73671875 58.1034375 46.0859375 58.671875 C36.96600247 67.1088193 28.85665952 80.73309835 27.80712891 93.31152344 C27.12570121 114.86115807 30.3256563 131.40139123 45.51953125 147.61328125 C55.72396473 157.43203535 67.32916273 162.13660514 80.5078125 166.6640625 C83.95282014 167.98195133 87.07266986 169.55656153 90.3125 171.3125 C94.53240008 173.45319103 98.01356611 175.05315887 102.80078125 174.7265625 C106.65342223 173.45375393 109.32970324 170.67732011 112.328125 168.0234375 C116.00213904 165.24107014 119.73264464 164.26372695 124.109375 162.984375 C128.65392242 161.43677237 132.22196804 158.90842692 136 156 C136.61488281 155.54882812 137.22976562 155.09765625 137.86328125 154.6328125 C147.18031389 147.31966493 151.96415813 136.8723134 156 126 C156.34289062 125.09121094 156.68578125 124.18242188 157.0390625 123.24609375 C161.35980624 109.37529491 160.98256626 91.22930575 155 78 C154.525625 76.92878906 154.05125 75.85757813 153.5625 74.75390625 C144.56965681 56.40072386 130.02505695 46.31227361 111.37890625 39.3515625 C107.17864652 37.67145861 103.70691611 35.57214588 100 33 C100.3960357 23.69316098 106.70917259 16.47634779 113 10 C114.66313351 8.66226218 116.32854798 7.32732954 118 6 C118 5.34 118 4.68 118 4 C114.75857021 2.88865264 113.56540837 2.6320654 110.62890625 4.54296875 Z " fill="#FFFFFF"/>
	</g>
</svg>